<?xml version="1.0" encoding="UTF-8"?>
<svg width="1080" height="1920" viewBox="0 0 1080 1920" xmlns="http://www.w3.org/2000/svg">
  <defs>
    <linearGradient id="bg" x1="0%" y1="0%" x2="100%" y2="100%">
      <stop offset="0%" style="stop-color:#F8FAFC;stop-opacity:1" />
      <stop offset="100%" style="stop-color:#E2E8F0;stop-opacity:1" />
    </linearGradient>
  </defs>
  <rect width="1080" height="1920" fill="url(#bg)"/>
  
  <!-- Header -->
  <rect x="0" y="0" width="1080" height="200" fill="#4F46E5"/>
  <text x="540" y="120" font-family="Arial, sans-serif" font-size="48" font-weight="bold" text-anchor="middle" fill="white">AmaKo Shop</text>
  
  <!-- Search Bar -->
  <rect x="40" y="240" width="1000" height="80" fill="white" rx="20" stroke="#E2E8F0" stroke-width="2"/>
  <text x="80" y="290" font-family="Arial, sans-serif" font-size="32" fill="#64748B">Search for food...</text>
  
  <!-- Category Cards -->
  <rect x="40" y="360" width="240" height="160" fill="white" rx="20" stroke="#E2E8F0" stroke-width="1"/>
  <text x="160" y="420" font-family="Arial, sans-serif" font-size="24" font-weight="bold" text-anchor="middle" fill="#1E293B">Food</text>
  
  <rect x="300" y="360" width="240" height="160" fill="white" rx="20" stroke="#E2E8F0" stroke-width="1"/>
  <text x="420" y="420" font-family="Arial, sans-serif" font-size="24" font-weight="bold" text-anchor="middle" fill="#1E293B">Drinks</text>
  
  <rect x="560" y="360" width="240" height="160" fill="white" rx="20" stroke="#E2E8F0" stroke-width="1"/>
  <text x="680" y="420" font-family="Arial, sans-serif" font-size="24" font-weight="bold" text-anchor="middle" fill="#1E293B">Desserts</text>
  
  <rect x="800" y="360" width="240" height="160" fill="white" rx="20" stroke="#E2E8F0" stroke-width="1"/>
  <text x="920" y="420" font-family="Arial, sans-serif" font-size="24" font-weight="bold" text-anchor="middle" fill="#1E293B">More</text>
  
  <!-- Product Grid -->
  <rect x="40" y="560" width="320" height="400" fill="white" rx="20" stroke="#E2E8F0" stroke-width="1"/>
  <rect x="60" y="580" width="280" height="200" fill="#F1F5F9" rx="10"/>
  <text x="200" y="820" font-family="Arial, sans-serif" font-size="20" font-weight="bold" text-anchor="middle" fill="#1E293B">Burger Combo</text>
  <text x="200" y="850" font-family="Arial, sans-serif" font-size="18" text-anchor="middle" fill="#64748B">Rs. 450</text>
  
  <rect x="380" y="560" width="320" height="400" fill="white" rx="20" stroke="#E2E8F0" stroke-width="1"/>
  <rect x="400" y="580" width="280" height="200" fill="#F1F5F9" rx="10"/>
  <text x="540" y="820" font-family="Arial, sans-serif" font-size="20" font-weight="bold" text-anchor="middle" fill="#1E293B">Pizza</text>
  <text x="540" y="850" font-family="Arial, sans-serif" font-size="18" text-anchor="middle" fill="#64748B">Rs. 650</text>
  
  <rect x="720" y="560" width="320" height="400" fill="white" rx="20" stroke="#E2E8F0" stroke-width="1"/>
  <rect x="740" y="580" width="280" height="200" fill="#F1F5F9" rx="10"/>
  <text x="880" y="820" font-family="Arial, sans-serif" font-size="20" font-weight="bold" text-anchor="middle" fill="#1E293B">Coffee</text>
  <text x="880" y="850" font-family="Arial, sans-serif" font-size="18" text-anchor="middle" fill="#64748B">Rs. 180</text>
  
  <!-- Bottom Navigation -->
  <rect x="0" y="1800" width="1080" height="120" fill="white" stroke="#E2E8F0" stroke-width="1"/>
  <text x="216" y="1860" font-family="Arial, sans-serif" font-size="20" text-anchor="middle" fill="#4F46E5">Home</text>
  <text x="432" y="1860" font-family="Arial, sans-serif" font-size="20" text-anchor="middle" fill="#64748B">Menu</text>
  <text x="648" y="1860" font-family="Arial, sans-serif" font-size="20" text-anchor="middle" fill="#64748B">Cart</text>
  <text x="864" y="1860" font-family="Arial, sans-serif" font-size="20" text-anchor="middle" fill="#64748B">Profile</text>
</svg>